<svg width="100" height="100" viewBox="0 0 100 100" fill="none" xmlns="http://www.w3.org/2000/svg">
<g clip-path="url(#clip0_19_54)">
<path d="M95 89.5V44.5C95 40.35 91.65 37 87.5 37H17.45C13.3 37 9.95 40.35 9.95 44.5V89.5C9.95 93.65 13.3 97 17.45 97H87.5C91.65 97 95 93.65 95 89.5ZM88.45 43.95C90.1 45.6 89.2 47.3 88.3 48.15L68 66.75L87.5 87.05C88.1 87.75 88.5 88.85 87.8 89.6C87.15 90.4 85.65 90.35 85 89.85L63.15 71.2L52.45 80.95L41.8 71.2L19.95 89.85C19.3 90.35 17.8 90.4 17.15 89.6C16.45 88.85 16.85 87.75 17.45 87.05L36.95 66.75L16.65 48.15C15.75 47.3 14.85 45.6 16.5 43.95C18.15 42.3 19.85 43.1 21.25 44.3L52.45 69.5L83.7 44.3C85.1 43.1 86.8 42.3 88.45 43.95V43.95Z" fill="#E08958"/>
</g>
<defs>
<clipPath id="clip0_19_54">
<rect width="100" height="100" fill="white"/>
</clipPath>
</defs>
</svg>
