<svg width="108" height="103" viewBox="0 0 108 103" fill="none" xmlns="http://www.w3.org/2000/svg">
<g filter="url(#filter0_d_2_28)">
<path d="M37.4476 76.0547C37.4476 76.4453 36.9839 76.7578 36.3992 76.7578C35.7339 76.8164 35.2702 76.5039 35.2702 76.0547C35.2702 75.6641 35.7339 75.3516 36.3186 75.3516C36.9234 75.293 37.4476 75.6055 37.4476 76.0547ZM31.1774 75.1758C31.0363 75.5664 31.4395 76.0156 32.0444 76.1328C32.5686 76.3281 33.1734 76.1328 33.2944 75.7422C33.4153 75.3516 33.0323 74.9023 32.4274 74.7266C31.9032 74.5898 31.3186 74.7852 31.1774 75.1758ZM40.0887 74.8437C39.504 74.9805 39.1008 75.3516 39.1613 75.8008C39.2218 76.1914 39.746 76.4453 40.3508 76.3086C40.9355 76.1719 41.3387 75.8008 41.2782 75.4102C41.2177 75.0391 40.6734 74.7852 40.0887 74.8437ZM53.3548 0C25.3911 0 4 20.5664 4 47.6563C4 69.3164 18.0726 87.8516 38.1734 94.375C40.754 94.8242 41.6613 93.2813 41.6613 92.0117C41.6613 90.8008 41.6008 84.1211 41.6008 80.0195C41.6008 80.0195 27.4879 82.9492 24.5242 74.1992C24.5242 74.1992 22.2258 68.5156 18.9194 67.0508C18.9194 67.0508 14.3024 63.9844 19.2419 64.043C19.2419 64.043 24.2621 64.4336 27.0242 69.082C31.4395 76.6211 38.8387 74.4531 41.7218 73.1641C42.1855 70.0391 43.496 67.8711 44.9476 66.582C33.6774 65.3711 22.3065 63.7891 22.3065 45C22.3065 39.6289 23.8387 36.9336 27.0645 33.4961C26.5403 32.2266 24.8266 26.9922 27.5887 20.2344C31.8024 18.9648 41.5 25.5078 41.5 25.5078C45.5323 24.4141 49.8669 23.8477 54.1613 23.8477C58.4556 23.8477 62.7903 24.4141 66.8226 25.5078C66.8226 25.5078 76.5202 18.9453 80.7339 20.2344C83.496 27.0117 81.7823 32.2266 81.2581 33.4961C84.4839 36.9531 86.4597 39.6484 86.4597 45C86.4597 63.8477 74.5847 65.3516 63.3145 66.582C65.1694 68.125 66.7419 71.0547 66.7419 75.6445C66.7419 82.2266 66.6814 90.3711 66.6814 91.9727C66.6814 93.2422 67.6089 94.7852 70.1694 94.3359C90.3307 87.8516 104 69.3164 104 47.6563C104 20.5664 81.3186 0 53.3548 0ZM23.5968 67.3633C23.3347 67.5586 23.3952 68.0078 23.7379 68.3789C24.0605 68.6914 24.5242 68.8281 24.7863 68.5742C25.0484 68.3789 24.9879 67.9297 24.6452 67.5586C24.3226 67.2461 23.8589 67.1094 23.5968 67.3633ZM21.4194 65.7813C21.2782 66.0352 21.4798 66.3477 21.8831 66.543C22.2056 66.7383 22.6089 66.6797 22.75 66.4063C22.8911 66.1523 22.6895 65.8398 22.2863 65.6445C21.8831 65.5273 21.5605 65.5859 21.4194 65.7813ZM27.9516 72.7344C27.629 72.9883 27.75 73.5742 28.2137 73.9453C28.6774 74.3945 29.2621 74.4531 29.5242 74.1406C29.7863 73.8867 29.6653 73.3008 29.2621 72.9297C28.8186 72.4805 28.2137 72.4219 27.9516 72.7344ZM25.6532 69.8633C25.3306 70.0586 25.3306 70.5664 25.6532 71.0156C25.9758 71.4648 26.5202 71.6602 26.7823 71.4648C27.1048 71.2109 27.1048 70.7031 26.7823 70.2539C26.5 69.8047 25.9758 69.6094 25.6532 69.8633Z" fill="#E08958"/>
</g>
<defs>
<filter id="filter0_d_2_28" x="0" y="0" width="108" height="108" filterUnits="userSpaceOnUse" color-interpolation-filters="sRGB">
<feFlood flood-opacity="0" result="BackgroundImageFix"/>
<feColorMatrix in="SourceAlpha" type="matrix" values="0 0 0 0 0 0 0 0 0 0 0 0 0 0 0 0 0 0 127 0" result="hardAlpha"/>
<feOffset dy="4"/>
<feGaussianBlur stdDeviation="2"/>
<feComposite in2="hardAlpha" operator="out"/>
<feColorMatrix type="matrix" values="0 0 0 0 0 0 0 0 0 0 0 0 0 0 0 0 0 0 0.25 0"/>
<feBlend mode="normal" in2="BackgroundImageFix" result="effect1_dropShadow_2_28"/>
<feBlend mode="normal" in="SourceGraphic" in2="effect1_dropShadow_2_28" result="shape"/>
</filter>
</defs>
</svg>
