<svg width="100" height="100" viewBox="0 0 100 100" fill="none" xmlns="http://www.w3.org/2000/svg">
<g clip-path="url(#clip0_19_50)">
<path d="M49.9998 0C77.6156 0 100 22.3875 100 50.0002C100 77.6129 77.6156 100 49.9998 100C22.3841 100 0 77.6125 0 50.0002C0 22.3878 22.3844 0 49.9998 0Z" fill="#E08958"/>
<path d="M28.175 68.7H37.5376V37.4936H28.175V68.7ZM64.6501 36.4127C60.1063 36.4127 56.0406 38.072 53.1565 41.7347V37.391H43.7596V68.7003H53.1565V51.7691C53.1565 48.1909 56.4347 44.7002 60.5409 44.7002C64.647 44.7002 65.6596 48.1908 65.6596 51.6815V68.6972H75.0222V50.9847C75.0219 38.6813 69.197 36.4127 64.6501 36.4127ZM32.8125 34.3751C35.4 34.3751 37.5001 32.275 37.5001 29.6874C37.5001 27.0999 35.4 25.0001 32.8125 25.0001C30.225 25.0001 28.1248 27.1002 28.1248 29.6878C28.1248 32.2753 30.225 34.3751 32.8125 34.3751Z" fill="white"/>
</g>
<defs>
<clipPath id="clip0_19_50">
<rect width="100" height="100" fill="white"/>
</clipPath>
</defs>
</svg>
