<svg width="100" height="100" viewBox="0 0 100 100" fill="none" xmlns="http://www.w3.org/2000/svg">
<g filter="url(#filter0_d_2_3)">
<path d="M99.8711 50.281C99.8711 22.5049 77.521 0 49.9354 0C22.3502 0 0 22.5049 0 50.281C0 75.3772 18.2607 96.1789 42.133 99.954V64.8159H29.4479V50.281H42.133V39.2031C42.133 26.6024 49.5832 19.6421 60.9938 19.6421C66.4588 19.6421 72.1728 20.6234 72.1728 20.6234V32.9909H65.8746C59.6729 32.9909 57.7381 36.8675 57.7381 40.8433V50.281H71.5869L69.3722 64.8159H57.7381V99.954C81.6103 96.1789 99.8711 75.3772 99.8711 50.281Z" fill="#00D1FF"/>
</g>
<defs>
<filter id="filter0_d_2_3" x="-4" y="0" width="107.871" height="107.954" filterUnits="userSpaceOnUse" color-interpolation-filters="sRGB">
<feFlood flood-opacity="0" result="BackgroundImageFix"/>
<feColorMatrix in="SourceAlpha" type="matrix" values="0 0 0 0 0 0 0 0 0 0 0 0 0 0 0 0 0 0 127 0" result="hardAlpha"/>
<feOffset dy="4"/>
<feGaussianBlur stdDeviation="2"/>
<feComposite in2="hardAlpha" operator="out"/>
<feColorMatrix type="matrix" values="0 0 0 0 0 0 0 0 0 0 0 0 0 0 0 0 0 0 0.25 0"/>
<feBlend mode="normal" in2="BackgroundImageFix" result="effect1_dropShadow_2_3"/>
<feBlend mode="normal" in="SourceGraphic" in2="effect1_dropShadow_2_3" result="shape"/>
</filter>
</defs>
</svg>
